<mxfile host="app.diagrams.net" modified="2020-10-27T05:15:33.682Z" agent="5.0 (X11; Linux x86_64) AppleWebKit/537.36 (KHTML, like Gecko) Chrome/86.0.4240.75 Safari/537.36" etag="NwdQkcoJG0Da0tumODQq" version="13.8.3" type="github">
  <diagram id="JRVa6Ch2aQpBddjGB30A" name="Page-1">
    <mxGraphModel dx="796" dy="494" grid="1" gridSize="10" guides="1" tooltips="1" connect="1" arrows="1" fold="1" page="1" pageScale="1" pageWidth="827" pageHeight="1169" math="0" shadow="0">
      <root>
        <mxCell id="0" />
        <mxCell id="1" parent="0" />
        <mxCell id="z4FDt-fJkjCZI30GpMzd-1" value="" style="rounded=0;whiteSpace=wrap;html=1;" vertex="1" parent="1">
          <mxGeometry x="90" y="110" width="380" height="180" as="geometry" />
        </mxCell>
        <mxCell id="z4FDt-fJkjCZI30GpMzd-2" value="2820" style="text;html=1;strokeColor=none;fillColor=none;align=center;verticalAlign=middle;whiteSpace=wrap;rounded=0;" vertex="1" parent="1">
          <mxGeometry x="230" y="80" width="40" height="20" as="geometry" />
        </mxCell>
        <mxCell id="z4FDt-fJkjCZI30GpMzd-3" value="1570" style="text;html=1;strokeColor=none;fillColor=none;align=center;verticalAlign=middle;whiteSpace=wrap;rounded=0;" vertex="1" parent="1">
          <mxGeometry x="490" y="200" width="40" height="20" as="geometry" />
        </mxCell>
        <mxCell id="z4FDt-fJkjCZI30GpMzd-4" value="1350" style="text;html=1;strokeColor=none;fillColor=none;align=center;verticalAlign=middle;whiteSpace=wrap;rounded=0;" vertex="1" parent="1">
          <mxGeometry x="120" y="300" width="40" height="20" as="geometry" />
        </mxCell>
        <mxCell id="z4FDt-fJkjCZI30GpMzd-5" value="800" style="text;html=1;strokeColor=none;fillColor=none;align=center;verticalAlign=middle;whiteSpace=wrap;rounded=0;" vertex="1" parent="1">
          <mxGeometry x="320" y="300" width="40" height="20" as="geometry" />
        </mxCell>
        <mxCell id="z4FDt-fJkjCZI30GpMzd-6" value="670" style="text;html=1;strokeColor=none;fillColor=none;align=center;verticalAlign=middle;whiteSpace=wrap;rounded=0;" vertex="1" parent="1">
          <mxGeometry x="420" y="300" width="40" height="20" as="geometry" />
        </mxCell>
        <mxCell id="z4FDt-fJkjCZI30GpMzd-7" value="" style="rounded=0;whiteSpace=wrap;html=1;" vertex="1" parent="1">
          <mxGeometry x="281.5" y="290" width="117" height="10" as="geometry" />
        </mxCell>
      </root>
    </mxGraphModel>
  </diagram>
</mxfile>
